<?xml version="1.0" encoding="utf-8"?>
<!-- Generator: Adobe Illustrator 27.5.0, SVG Export Plug-In . SVG Version: 6.00 Build 0)  -->
<svg version="1.1" id="Слой_1" xmlns="http://www.w3.org/2000/svg" xmlns:xlink="http://www.w3.org/1999/xlink" x="0px" y="0px"
	 viewBox="0 0 2000 2000" style="enable-background:new 0 0 2000 2000;" xml:space="preserve">
<rect style="fill:#FFFFFF;" width="2000" height="2000"/>
<g>
	<path style="fill:#D7E9F4;" d="M369.644,1542.229c0,0-304.834-36.399-243.965-288.797
		c60.869-252.397,343.29-257.473,450.178-428.892c106.887-171.418,253.666-432.923,658.713-353.874
		c481.532,93.977,275.851,458.232,366.397,562.186c90.546,103.954,229.603,97.717,268.15,236.53
		c72.021,259.359-180.798,268.027-249.851,272.847H369.644z"/>
	<g>
		<path style="fill:#FFFFFF;" d="M823.141,1307.765c-23.428-31-175.294,116.252-160.722,83.315
			c14.572-32.936,63.327-183.364,15.723-198.603c-47.604-15.238-57.572,74.287-102.286,41.179
			c-44.713-33.107,13.163-182.229-21.287-187.931c-34.45-5.701-22,129.039-77.159,91.775
			c-47.96-32.399-91.776-105.767-117.209-95.428c15.298,22.829,59.209,89.351,106.892,170.729
			c54.401,92.845,124.972,224.563,152.233,324.812c0.218,0.799-0.254,1.624-1.054,1.841c-0.132,0.036-0.264,0.053-0.394,0.053
			c-0.66,0-1.265-0.438-1.446-1.106c-27.173-99.926-97.612-231.382-151.917-324.064c-47.813-81.602-91.832-148.257-106.964-170.829
			c-2.758,1.884-5.273,4.903-7.514,9.283c-22.532,44.025,91.533,171.975,59.33,192.523
			c-32.203,20.548-136.797,32.451-103.797,68.104s197.685,68.446,189.693,108.232c-7.992,39.787-97.788-23.49-126.693,9.381
			c-28.905,32.871,165,109.339,165,109.339s37,6.395,98.454,1.859C693.477,1537.695,846.57,1338.765,823.141,1307.765z"/>
		<path style="fill:#FFFFFF;" d="M1297.569,1398.021c-28.521-11.2-80.166,78.704-98.313,112.38
			c3.59-18.402,8.897-39.671,14.964-61.573c10.545-10.464,145.27-145.067,111.633-158.276
			c-28.37-11.141-79.621,77.756-98.023,111.842c17.948-58.454,36.49-110.049,36.817-110.958l-2.822-1.018
			c-0.344,0.954-20.746,57.724-39.496,119.745c3.501-16.315,10.281-69.644-29.476-137.437
			c-44.072-75.149,10.249,136.694,19.435,171.87c-7.553,27.008-14.043,53.252-17.697,74.606c-1.202,2.31-1.855,3.604-1.855,3.604
			s19.834-60.765-28.166-142.611c-48-81.848,0,152.569,0,152.569l30.084-3.655l1.402,0.193c0.018-0.122,0.036-0.248,0.053-0.37
			l24.295-2.952C1220.403,1525.98,1332.569,1411.765,1297.569,1398.021z"/>
		<path style="fill:#FFFFFF;" d="M1536.188,839.765c-17.946-13.246-52.779,26.424-78.148,60.891
			c6.576-19.714,12.93-40.952,18.203-59.413c21.441-36.538,76.241-136.414,42.134-148.51
			c-33.302-11.811-47.199,127.606-49.721,156.609c-6.234,21.383-13.604,45.274-20.9,65.697c-0.422,0.606-0.842,1.21-1.253,1.806
			c9.766-22.126,17.13-57.282,3.654-106.204c-25.195-91.478-38.487,165.887-38.487,165.887S1566.441,862.094,1536.188,839.765z"/>
	</g>
	<g>
		<rect x="1386.415" y="924.214" style="fill:#FFFFFF;" width="416.403" height="617.709"/>
		<path style="fill:#0E2549;" d="M1804.318,1543.423h-419.404V922.714h419.404V1543.423z M1387.914,1540.423h413.404V925.714
			h-413.404V1540.423z"/>
		
			<ellipse transform="matrix(0.9239 -0.3827 0.3827 0.9239 -279.9937 651.7645)" style="fill:#A1C5E2;" cx="1498.32" cy="1029.692" rx="37.474" ry="37.474"/>
		<path style="fill:#0E2549;" d="M1492.423,1038.49l-29.995-32.182c-0.564-0.605-0.531-1.555,0.075-2.12
			c0.606-0.563,1.556-0.532,2.12,0.075l28.069,30.115l56.435-46.525c0.641-0.528,1.584-0.436,2.111,0.203
			c0.527,0.639,0.437,1.584-0.203,2.111L1492.423,1038.49z"/>
		<path style="fill:#0E2549;" d="M1498.32,1261.096c-21.49,0-38.974-17.483-38.974-38.974s17.483-38.974,38.974-38.974
			s38.974,17.483,38.974,38.974S1519.811,1261.096,1498.32,1261.096z M1498.32,1186.148c-19.836,0-35.974,16.138-35.974,35.974
			s16.138,35.974,35.974,35.974s35.974-16.138,35.974-35.974S1518.156,1186.148,1498.32,1186.148z"/>
		<path style="fill:#0E2549;" d="M1498.32,1453.525c-21.49,0-38.974-17.484-38.974-38.975s17.483-38.974,38.974-38.974
			s38.974,17.483,38.974,38.974S1519.811,1453.525,1498.32,1453.525z M1498.32,1378.577c-19.836,0-35.974,16.138-35.974,35.974
			c0,19.837,16.138,35.975,35.974,35.975s35.974-16.138,35.974-35.975C1534.294,1394.715,1518.156,1378.577,1498.32,1378.577z"/>
		<path style="fill:#0E2549;" d="M1767.902,1002.265h-200.996c-0.828,0-1.5-0.672-1.5-1.5c0-0.829,0.672-1.5,1.5-1.5h200.996
			c0.828,0,1.5,0.671,1.5,1.5C1769.402,1001.593,1768.73,1002.265,1767.902,1002.265z"/>
		<path style="fill:#0E2549;" d="M1627.113,1043.9h-56.964c-0.828,0-1.5-0.672-1.5-1.5s0.672-1.5,1.5-1.5h56.964
			c0.828,0,1.5,0.672,1.5,1.5S1627.941,1043.9,1627.113,1043.9z"/>
	</g>
	<path style="fill:#0E2549;" d="M245.743,1085.84l3.555-2.931c0.639-0.526,0.73-1.473,0.203-2.111
		c-0.527-0.641-1.472-0.73-2.111-0.203l-4.195,3.459c-11.313-7.433-26.917-12.035-44.125-12.035
		c-34.461,0-62.497,18.456-62.497,41.143s28.036,41.144,62.497,41.144c1.413,0,2.883-0.037,4.47-0.113
		c7.319,11.853,19.165,29.323,19.286,29.502l1.803,2.658l11.405-39.996c16.003-7.723,25.533-20.093,25.533-33.194
		C261.567,1102.683,255.576,1093.111,245.743,1085.84z M234.139,1143.936l-0.617,0.29l-10.014,35.115
		c-3.706-5.511-12.304-18.391-17.879-27.478l-0.468-0.763l-0.894,0.049c-1.878,0.104-3.579,0.155-5.198,0.155
		c-32.807,0-59.497-17.111-59.497-38.144s26.69-38.143,59.497-38.143c16.251,0,30.996,4.202,41.745,10.997l-49.858,41.104
		l-28.07-30.115c-0.565-0.606-1.515-0.639-2.12-0.075c-0.606,0.565-0.639,1.515-0.074,2.12l29.995,32.182l52.724-43.468
		c9.417,6.75,15.157,15.65,15.157,25.397C258.567,1125.238,249.435,1136.742,234.139,1143.936z"/>
	<g>
		<rect x="912.318" y="1313.418" style="fill:#A1C5E2;" width="167.34" height="155.325"/>
		<path style="fill:#D2EBFC;" d="M1412.175,1340.339H569.221c-14.988,0-27.139-12.15-27.139-27.14V722.113
			c0-14.989,12.151-27.139,27.139-27.139h842.954c14.988,0,27.14,12.15,27.14,27.139v591.086
			C1439.314,1328.188,1427.163,1340.339,1412.175,1340.339z"/>
		<path style="fill:#0E2549;" d="M1412.175,1341.839H569.222c-15.792,0-28.639-12.848-28.639-28.64V722.113
			c0-15.792,12.848-28.639,28.639-28.639h842.953c15.791,0,28.639,12.848,28.639,28.639v591.086
			C1440.813,1328.991,1427.966,1341.839,1412.175,1341.839z M569.222,696.474c-14.137,0-25.639,11.502-25.639,25.639v591.086
			c0,14.138,11.502,25.64,25.639,25.64h842.953c14.137,0,25.639-11.502,25.639-25.64V722.113c0-14.138-11.502-25.639-25.639-25.639
			H569.222z"/>
		<rect x="596.162" y="739.098" style="fill:#FFFFFF;" width="796.667" height="517.617"/>
		<path style="fill:#0E2549;" d="M1394.327,1258.216H594.662V737.598h799.666V1258.216z M597.662,1255.216h793.666V740.598H597.662
			V1255.216z"/>
		<rect x="823.141" y="1466.806" style="fill:#2E6B99;" width="345.694" height="75.424"/>
		
			<ellipse transform="matrix(0.2298 -0.9732 0.9732 0.2298 219.1079 1829.4508)" style="fill:#A1C5E2;" cx="1265.36" cy="776.298" rx="9.708" ry="9.708"/>
		<circle style="fill:#A1C5E2;" cx="1300.438" cy="776.139" r="9.708"/>
		<path style="fill:#A1C5E2;" d="M1345.225,776.139c0,5.362-4.347,9.708-9.709,9.708c-5.361,0-9.707-4.346-9.707-9.708
			c0-5.361,4.346-9.708,9.707-9.708C1340.878,766.431,1345.225,770.778,1345.225,776.139z"/>
		<rect x="809.134" y="1074.997" style="fill:#E2474B;" width="361.425" height="180.186"/>
		<polygon style="fill:#A1C5E2;" points="1159.035,966.434 823.8,966.434 783.991,1049.253 783.991,1101.579 1186.273,1101.579 
			1186.273,1049.253 		"/>
		<path style="fill:#0E2549;" d="M1101.397,987.73c0,3.384-1.383,6.464-3.614,8.695c-2.231,2.232-5.312,3.615-8.695,3.615H883.757
			c-6.778,0-12.31-5.532-12.31-12.31c0-3.384,1.383-6.464,3.614-8.695c2.232-2.232,5.301-3.614,8.695-3.614h205.331
			C1095.855,975.42,1101.397,980.962,1101.397,987.73z"/>
		<polygon style="fill:#FFFFFF;" points="1065.374,939.536 1058.135,974.16 1053.075,998.348 924.199,998.348 929.258,974.16 
			941.714,914.576 		"/>
		<path style="fill:#0E2549;" d="M1054.294,999.848H922.352l18.199-87.037l126.6,25.553L1054.294,999.848z M926.045,996.848h125.812
			l11.74-56.141l-120.718-24.366L926.045,996.848z"/>
		<path style="fill:#A1C5E2;" d="M974.927,958.563c-1.572,7.651-9.049,12.579-16.7,11.007c-7.651-1.572-12.579-9.048-11.007-16.7
			c1.572-7.651,9.048-12.579,16.7-11.007C971.571,943.435,976.499,950.912,974.927,958.563z"/>
		<path style="fill:#0E2549;" d="M938.384,999.848c-0.29,0-0.583-0.084-0.842-0.259c-0.685-0.466-0.863-1.398-0.398-2.084
			c3.561-5.238,9.874-7.799,16.084-6.524c4,0.816,7.477,3.132,9.79,6.522c0.467,0.685,0.291,1.618-0.394,2.084
			c-0.684,0.467-1.617,0.291-2.084-0.394c-1.87-2.741-4.68-4.614-7.913-5.274c-5.022-1.031-10.124,1.038-13,5.272
			C939.336,999.618,938.864,999.848,938.384,999.848z"/>
		<path style="fill:#0E2549;" d="M1042.554,964.065c-0.101,0-0.202-0.01-0.304-0.031l-53.874-11.069
			c-0.812-0.167-1.334-0.959-1.167-1.771c0.167-0.811,0.964-1.333,1.771-1.167l53.874,11.069c0.812,0.167,1.334,0.959,1.168,1.771
			C1043.875,963.576,1043.25,964.065,1042.554,964.065z"/>
		<path style="fill:#0E2549;" d="M1010.715,975.883c-0.1,0-0.202-0.01-0.304-0.031l-25.654-5.271
			c-0.812-0.167-1.334-0.96-1.167-1.771c0.167-0.812,0.963-1.333,1.771-1.167l25.654,5.271c0.812,0.167,1.334,0.96,1.168,1.771
			C1012.036,975.394,1011.411,975.883,1010.715,975.883z"/>
		<path style="fill:#0E2549;" d="M959.419,959.846l-10.33-17.125c-0.428-0.709-0.2-1.631,0.509-2.059
			c0.71-0.43,1.631-0.2,2.059,0.509l8.817,14.616l30.841-17.63c0.72-0.411,1.636-0.162,2.047,0.558
			c0.411,0.719,0.161,1.636-0.558,2.047L959.419,959.846z"/>
		<path style="fill:#FFFFFF;" d="M1045.446,1200.515H920.467c-15.589,0-28.344-12.755-28.344-28.344v-9.313
			c0-15.589,12.755-28.344,28.344-28.344h124.979c15.589,0,28.344,12.755,28.344,28.344v9.313
			C1073.79,1187.76,1061.035,1200.515,1045.446,1200.515z"/>
		<path style="fill:#0E2549;" d="M1045.445,1202.015H920.467c-16.456,0-29.844-13.388-29.844-29.844v-9.313
			c0-16.456,13.388-29.844,29.844-29.844h124.979c16.456,0,29.844,13.388,29.844,29.844v9.313
			C1075.289,1188.627,1061.901,1202.015,1045.445,1202.015z M920.467,1136.015c-14.802,0-26.844,12.042-26.844,26.844v9.313
			c0,14.802,12.042,26.844,26.844,26.844h124.979c14.802,0,26.844-12.042,26.844-26.844v-9.313
			c0-14.802-12.042-26.844-26.844-26.844H920.467z"/>
		<path style="fill:#0E2549;" d="M931.156,1183.988l-14.13-32.011h4.434l7.517,17.344c2.769,6.403,3.863,9.269,4.472,11.029h0.09
			c0.495-1.513,2.092-5.225,4.11-10.101l8.026-18.272H950l-14.355,32.011H931.156z"/>
		<path style="fill:#0E2549;" d="M985.755,1167.888c0,9.072-6.148,16.775-16.75,16.775c-10.228,0-16.714-7.403-16.714-16.799
			c0-8.891,6.617-16.562,16.81-16.562C979.185,1151.303,985.755,1158.984,985.755,1167.888z M956.585,1167.739
			c0,7.006,4.368,13.462,12.538,13.462c8.029,0,12.339-6.019,12.339-13.224c0-6.771-4.385-13.213-12.62-13.213
			C961.199,1154.765,956.585,1160.779,956.585,1167.739z"/>
		<path style="fill:#0E2549;" d="M1000.706,1155.472h-12.341v-3.494h28.753v3.494h-12.33v28.517h-4.082V1155.472z"/>
		<path style="fill:#0E2549;" d="M1045.937,1168.881h-19.393v11.637h21.372l-0.567,3.471h-24.854v-32.011h24.454v3.47h-20.405v9.964
			h19.393V1168.881z"/>
		<path style="fill:#0E2549;" d="M994.495,1320.568c-11.634,0-21.099-9.465-21.099-21.1s9.465-21.1,21.099-21.1
			c11.634,0,21.099,9.465,21.099,21.1S1006.129,1320.568,994.495,1320.568z M994.495,1281.369c-9.98,0-18.099,8.119-18.099,18.1
			s8.119,18.1,18.099,18.1c9.98,0,18.099-8.119,18.099-18.1S1004.475,1281.369,994.495,1281.369z"/>
		<path style="fill:#0E2549;" d="M1379.146,1311.214c-7.042,0-12.771-5.729-12.771-12.771s5.729-12.771,12.771-12.771
			s12.771,5.729,12.771,12.771S1386.188,1311.214,1379.146,1311.214z M1379.146,1288.672c-5.388,0-9.771,4.383-9.771,9.771
			s4.383,9.771,9.771,9.771s9.771-4.384,9.771-9.771S1384.534,1288.672,1379.146,1288.672z"/>
	</g>
	<path style="fill:#0E2549;" d="M1880.858,1543.423H125.679c-0.828,0-1.5-0.672-1.5-1.5s0.672-1.5,1.5-1.5h1755.18
		c0.828,0,1.5,0.672,1.5,1.5S1881.687,1543.423,1880.858,1543.423z"/>
	<g>
		<path style="fill:#D2EBFC;" d="M1412.354,1541.923h-320.568v-57.224c0-0.158,0.129-0.286,0.287-0.286h320.281V1541.923z"/>
		<path style="fill:#FFFFFF;" d="M1038.441,1516.57l53.163,25.256c0.094,0.045,0.202-0.023,0.202-0.127v-57.062
			c0-0.104-0.108-0.173-0.202-0.128l-53.163,25.256C1035.574,1511.128,1035.574,1515.208,1038.441,1516.57z"/>
		<path style="fill:#0E2549;" d="M1092.071,1482.913c-0.199,0-0.938,0.159-1.111,0.242l-53.162,25.256
			c-1.854,0.881-3.007,2.704-3.007,4.757s1.152,3.876,3.007,4.757l52.487,25.498h323.568v-60.51H1092.071z M1090.285,1539.54
			l-29.177-13.861c-0.419-2.709-0.4-21.584-0.394-24.834l29.57-14.048V1539.54z M1093.306,1485.913h281.931v16.278h-281.931
			V1485.913z M1093.306,1505.191h281.931v16.115h-281.931V1505.191z M1093.306,1524.307h281.931v16.116h-281.931V1524.307z"/>
	</g>
	<path style="fill:#0E2549;" d="M955.683,1539.967l-140.545-504.07l-13.777,49.41h-80.335l12.107-43.422
		c0.223-0.799-0.244-1.626-1.042-1.849c-0.799-0.22-1.625,0.244-1.848,1.042l-12.332,44.229h-14.09c-0.829,0-1.5,0.672-1.5,1.5
		s0.671,1.5,1.5,1.5h13.254l-13.895,49.836h-13.327c-0.829,0-1.5,0.672-1.5,1.5s0.671,1.5,1.5,1.5h12.49l-13.895,49.835h-10.307
		c-0.829,0-1.5,0.672-1.5,1.5s0.671,1.5,1.5,1.5h9.47l-13.895,49.835h-11.298c-0.829,0-1.5,0.672-1.5,1.5s0.671,1.5,1.5,1.5h10.461
		l-13.895,49.836h-8.711c-0.829,0-1.5,0.672-1.5,1.5s0.671,1.5,1.5,1.5h7.874l-13.895,49.835h-9.693c-0.829,0-1.5,0.672-1.5,1.5
		s0.671,1.5,1.5,1.5h8.857l-13.895,49.835h-10.152c-0.829,0-1.5,0.672-1.5,1.5s0.671,1.5,1.5,1.5h9.315l-13.895,49.836H604.18
		c-0.829,0-1.5,0.672-1.5,1.5s0.671,1.5,1.5,1.5h9.774l-13.895,49.835h-12.117c-0.829,0-1.5,0.672-1.5,1.5s0.671,1.5,1.5,1.5h11.281
		l-8.08,28.978c-0.223,0.799,0.244,1.626,1.042,1.849c0.135,0.037,0.271,0.055,0.404,0.055c0.656,0,1.259-0.434,1.444-1.097
		l8.304-29.784h80.336l-8.08,28.978c-0.223,0.799,0.244,1.626,1.042,1.849c0.8,0.219,1.625-0.244,1.848-1.042l8.304-29.784h9.248
		c0.829,0,1.5-0.672,1.5-1.5s-0.671-1.5-1.5-1.5h-8.412l13.895-49.835h10.754c0.829,0,1.5-0.672,1.5-1.5s-0.671-1.5-1.5-1.5h-9.918
		l13.896-49.836h11.213c0.829,0,1.5-0.672,1.5-1.5s-0.671-1.5-1.5-1.5h-10.377l13.895-49.835h11.672c0.829,0,1.5-0.672,1.5-1.5
		s-0.671-1.5-1.5-1.5h-10.835l13.895-49.835h12.654c0.829,0,1.5-0.672,1.5-1.5s-0.671-1.5-1.5-1.5H745.55l13.895-49.836h10.067
		c0.829,0,1.5-0.672,1.5-1.5s-0.671-1.5-1.5-1.5h-9.231l13.895-49.835h11.058c0.829,0,1.5-0.672,1.5-1.5s-0.671-1.5-1.5-1.5h-10.222
		l13.895-49.835h8.038c0.829,0,1.5-0.672,1.5-1.5s-0.671-1.5-1.5-1.5h-7.202l13.896-49.836h7.274c0.829,0,1.5-0.672,1.5-1.5
		s-0.671-1.5-1.5-1.5h-6.438l10.662-38.24l137.655,493.707c0.185,0.663,0.788,1.097,1.444,1.097c0.133,0,0.269-0.018,0.404-0.055
		C955.439,1541.593,955.906,1540.766,955.683,1539.967z M683.509,1507.989h-80.336l13.895-49.835h80.336L683.509,1507.989z
		 M698.241,1455.154h-80.335l13.896-49.836h80.335L698.241,1455.154z M712.972,1402.318h-80.335l13.895-49.835h80.335
		L712.972,1402.318z M727.704,1349.483h-80.335l13.895-49.835h80.335L727.704,1349.483z M742.435,1296.648H662.1l13.895-49.836
		h80.336L742.435,1296.648z M757.167,1243.813h-80.336l13.895-49.835h80.335L757.167,1243.813z M771.898,1190.978h-80.335
		l13.895-49.835h80.335L771.898,1190.978z M786.63,1138.143h-80.336l13.896-49.836h80.335L786.63,1138.143z"/>
	<path style="fill:#0E2549;" d="M1746.08,1539.281l-9.608-34.09h7.917c0.828,0,1.5-0.672,1.5-1.5s-0.672-1.5-1.5-1.5h-8.763
		l-14.046-49.836h7.094c0.828,0,1.5-0.672,1.5-1.5s-0.672-1.5-1.5-1.5h-7.938l-14.046-49.835h9.842c0.827,0,1.5-0.672,1.5-1.5
		s-0.673-1.5-1.5-1.5h-10.688l-14.045-49.835h9.01c0.827,0,1.5-0.672,1.5-1.5s-0.673-1.5-1.5-1.5h-9.855l-14.046-49.836h12.188
		c0.828,0,1.5-0.672,1.5-1.5s-0.672-1.5-1.5-1.5h-13.034l-14.045-49.835h13.111c0.828,0,1.5-0.672,1.5-1.5s-0.672-1.5-1.5-1.5
		h-13.957l-12.467-44.232c-0.224-0.797-1.048-1.263-1.851-1.036c-0.797,0.225-1.262,1.053-1.036,1.851l12.237,43.418h-80.333
		l-12.467-44.232l-1.262-4.479l-127.251,349.873c-0.283,0.778,0.118,1.64,0.896,1.922c0.779,0.289,1.64-0.117,1.923-0.896
		l124.068-341.125l10.975,38.938h-6.569c-0.828,0-1.5,0.672-1.5,1.5s0.672,1.5,1.5,1.5h7.415l14.046,49.835h-7.493
		c-0.828,0-1.5,0.672-1.5,1.5s0.672,1.5,1.5,1.5h8.339l14.045,49.836h-10.672c-0.828,0-1.5,0.672-1.5,1.5s0.672,1.5,1.5,1.5h11.518
		l14.046,49.835h-9.841c-0.828,0-1.5,0.672-1.5,1.5s0.672,1.5,1.5,1.5h10.687l14.045,49.835h-12.587c-0.828,0-1.5,0.672-1.5,1.5
		s0.672,1.5,1.5,1.5h13.433l14.046,49.836h-11.765c-0.828,0-1.5,0.672-1.5,1.5s0.672,1.5,1.5,1.5h12.61l9.837,34.904
		c0.186,0.661,0.788,1.093,1.442,1.093c0.135,0,0.271-0.018,0.408-0.057c0.797-0.225,1.262-1.053,1.036-1.851l-9.607-34.09h80.333
		l9.837,34.904c0.186,0.661,0.788,1.093,1.442,1.093c0.135,0,0.271-0.018,0.408-0.057
		C1745.84,1540.907,1746.305,1540.079,1746.08,1539.281z M1578.567,1241.015h80.333l14.045,49.835h-80.333L1578.567,1241.015z
		 M1593.458,1293.85h80.333l14.046,49.836h-80.333L1593.458,1293.85z M1608.35,1346.686h80.333l14.045,49.835h-80.333
		L1608.35,1346.686z M1623.24,1399.521h80.333l14.046,49.835h-80.333L1623.24,1399.521z M1652.177,1502.191l-14.046-49.836h80.333
		l14.046,49.836H1652.177z"/>
	<g>
		<path style="fill:#E2474B;" d="M749.291,851.049c-0.163,0.625-0.325,1.242-0.492,1.846c-7.083,25.729-19.229,33.832-25.579,31.463
			c-2.064-0.771-3.516-2.638-3.987-5.366c-1.965-11.327,12.535-34.89,12.535-34.89S758.503,815.252,749.291,851.049z"/>
		<path style="fill:#E2474B;" d="M769.47,862.873c-0.479,2.762-2.064,4.561-4.287,5.088c-5.996,1.426-16.637-6.39-22.856-29.434
			c-0.103-0.385-0.206-0.779-0.308-1.173c-8.411-32.688,14.076-9.22,14.076-9.22S771.264,852.527,769.47,862.873z"/>
		<path style="fill:#0E2549;" d="M765.183,867.961c-5.996,1.426-16.637-6.39-22.856-29.434l4.257-1.135
			C746.584,837.393,746.867,855.584,765.183,867.961z"/>
		<path style="fill:#0E2549;" d="M748.799,852.894c-7.083,25.729-19.229,33.832-25.579,31.463
			c19.806-11.027,22.196-34.435,22.196-34.435L748.799,852.894z"/>
		<path style="fill:#2E6B99;" d="M815.471,707.373c-2.246-5.087-6.04-10.036-12.064-13.956
			c-1.154-0.752-17.516-12.981-18.837-13.652c-10.275-5.201-91.976,10.533-105.878,11.167c-1.079,0.046-6.653,6.536-9.125,13.902
			c-1.486,4.424-2.057,9.171-0.092,13.041c0.625,1.23,2.988,5.268,5.431,9.39l54.104,93.491l5.213,9.008l-1.885,5.628l-2.623,7.824
			l20.13,11.254l66.326-122.583C818.396,727.423,819.785,717.144,815.471,707.373z M748.494,787.19l-3.644,10.871l-2.51-8.223
			l-19.782-69.907l23.021-16.548l25.324,21.381L748.494,787.19z"/>
		<path style="fill:#1E5272;" d="M750.686,707.695l-5.617-3.431l-5.534,3.463c-14.187-10.158-42.744-13.941-61.749-16.237
			c6.783-9.092,13.931-13.631,13.931-13.631s12.81-0.758,13.889-0.804c13.901-0.634,68.688-2.492,78.963,2.709
			c1.322,0.671,17.683,12.9,18.837,13.652C809.431,697.337,756.651,700.623,750.686,707.695z"/>
		<path style="fill:#FFFFFF;" d="M746.135,517.212c0,0-3.219,24.279-5.828,26.666c-2.609,2.387-14.857,6.745-14.857,6.745l34,30.52
			l26.864-19.646c0,0-11.329-7.454-11.943-10.833c-0.851-4.677,3.434-28.054,3.434-28.054L746.135,517.212z"/>
		<path style="fill:#0E2549;" d="M759.354,583.072l-36.782-33.017l2.375-0.845c4.625-1.646,12.611-4.85,14.348-6.439
			c1.388-1.457,3.862-14.506,5.354-25.756l2.974,0.395c-0.771,5.822-3.507,25.018-6.302,27.576
			c-2.101,1.922-9.199,4.751-13.013,6.186l31.24,28.042l24.16-17.669c-3.73-2.583-10.244-7.492-10.811-10.613
			c-0.875-4.808,2.991-26.173,3.434-28.593l2.951,0.541c-1.703,9.289-4.022,24.282-3.434,27.515
			c0.299,1.644,6.081,6.42,11.292,9.849l1.805,1.188L759.354,583.072z"/>
		<path style="fill:#0E2549;" d="M760.63,469.138c0,0-15.437-0.308-16.976,8.724c-1.755,10.301-2.27,23.843-2.42,30.994
			c-0.06,2.822,1.958,5.26,4.741,5.734l31.171,5.312c2.856,0.487,5.622-1.245,6.43-4.026c2.721-9.362,8.303-29.217,7.688-32.46
			C789.17,472.385,760.63,469.138,760.63,469.138z"/>
		<path style="fill:#FFFFFF;" d="M753.609,526.835c8.666,2.531,19.989,2.741,23.575,0.2c2.102-1.49,4.034-8.472,5.62-16.543
			c0.046-0.233,0.213-0.423,0.436-0.505c2.398-0.879,6.016-3.02,6.609-7.057c0.515-3.497-2.227-3.212-4.474-2.441
			c-0.401,0.138-0.802-0.201-0.738-0.62c1.503-9.801,2.405-18.465,2.405-18.465l-39.539-6.738c0,0-1.408,8.729-2.694,18.567
			c-0.058,0.442-0.576,0.646-0.919,0.361c-1.885-1.564-4.597-3.042-5.303,0.601c-0.88,4.54,2.712,8.07,4.639,9.412
			c0.201,0.14,0.308,0.376,0.283,0.619c-0.715,6.972-1.07,13.046-0.48,15.318c0.322,1.237,1.15,2.36,2.349,3.364L753.609,526.835z"
			/>
		<path style="fill:#0E2549;" d="M767.854,530.323c-4.822,0-10.288-0.77-14.665-2.048c-0.795-0.232-1.252-1.065-1.02-1.86
			c0.233-0.795,1.067-1.253,1.86-1.02c9.123,2.665,19.472,2.412,22.288,0.416c0.531-0.376,2.462-2.615,5.015-15.608
			c0.146-0.74,0.678-1.362,1.39-1.624c1.52-0.558,5.11-2.244,5.643-5.867c0.117-0.796-0.02-1.098-0.052-1.124
			c-0.114-0.096-0.813-0.241-2.452,0.32c-0.685,0.236-1.43,0.1-1.989-0.367c-0.56-0.467-0.828-1.177-0.718-1.898
			c1.131-7.371,1.927-14.162,2.244-16.998l-36.65-6.246c-0.455,2.909-1.492,9.692-2.451,17.028
			c-0.098,0.748-0.594,1.381-1.294,1.655c-0.701,0.274-1.493,0.145-2.072-0.335c-1.505-1.248-2.294-1.37-2.45-1.311
			c-0.039,0.014-0.268,0.251-0.421,1.044c-0.846,4.362,3.522,7.546,4.023,7.895c0.647,0.451,0.998,1.218,0.917,2.003
			c-1.075,10.472-0.787,13.76-0.52,14.787c0.228,0.877,0.854,1.749,1.86,2.591c0.635,0.532,0.719,1.478,0.188,2.113
			c-0.532,0.635-1.478,0.719-2.113,0.188c-1.495-1.251-2.45-2.644-2.837-4.137c-0.562-2.162-0.434-7.193,0.391-15.373
			c-2.87-2.163-5.729-6.12-4.854-10.638c0.34-1.751,1.133-2.86,2.357-3.298c1.173-0.418,2.509-0.14,4.059,0.854
			c1.215-9.1,2.479-16.956,2.492-17.039l0.241-1.494l42.417,7.229l-0.146,1.398c-0.008,0.082-0.835,7.974-2.198,17.108
			c1.682-0.347,2.986-0.141,3.895,0.614c0.988,0.821,1.359,2.122,1.102,3.868c-0.717,4.876-4.945,7.193-7.146,8.081
			c-2.632,13.222-4.759,16.053-6.135,17.029C776.021,529.698,772.199,530.323,767.854,530.323z"/>
		<path style="fill:#0E2549;" d="M746.505,475.541c4.927,8.842,31.198,21.188,48.703-2.497c17.505-23.685-23.103-9.594-35.9-8.003
			C753.83,465.721,742.287,467.971,746.505,475.541z"/>
		<path style="fill:#FFFFFF;" d="M623.07,667.765c0,0-7.417,10.25-13.458,14.25c-6.042,4-33.042,3.158-33.042,9.954
			c0,6.796,36.966,3.475,41.25,0c4.283-3.475,17.75-15.759,17.75-15.759L623.07,667.765z"/>
		<path style="fill:#0E2549;" d="M591.166,697.381c-5.626,0-10.633-0.52-13.335-1.807c-2.283-1.087-2.762-2.561-2.762-3.605
			c0-5.347,9.646-6.7,19.859-8.132c5.747-0.806,11.69-1.64,13.855-3.073c5.748-3.805,12.998-13.778,13.071-13.878l0.852-1.177
			l15.283,10.325l-1.408,1.285c-0.551,0.502-13.548,12.353-17.816,15.815C616.083,695.309,602.396,697.381,591.166,697.381z
			 M623.417,669.81c-2.165,2.851-7.946,10.126-12.977,13.456c-2.731,1.808-8.46,2.611-15.095,3.542
			c-6.461,0.906-17.275,2.423-17.275,5.161c0,0.244,0.403,0.588,1.052,0.897c7.114,3.39,34.383,0.672,37.753-2.062
			c3.385-2.746,12.709-11.182,16.274-14.419L623.417,669.81z"/>
		<path style="fill:#0E2549;" d="M749.3,695.73l3.32-7.281l-10.547-15.366c-0.47-0.684-1.403-0.856-2.085-0.388
			c-0.683,0.469-0.857,1.403-0.388,2.086l9.587,13.968l-3.191,7l-39.605,18.344l27.124,81.675c0.209,0.629,0.794,1.028,1.423,1.028
			c0.156,0,0.316-0.025,0.473-0.077c0.786-0.261,1.212-1.11,0.951-1.896l-26.279-79.133l34.158-15.821
			c-0.025,0.592,0.303,1.168,0.875,1.428c0.202,0.092,0.413,0.136,0.621,0.136c0.569,0,1.114-0.326,1.366-0.878l0.906-1.987
			l28.148,23.845l-39.818,117.172c-0.267,0.784,0.153,1.636,0.938,1.903c0.16,0.054,0.322,0.08,0.482,0.08
			c0.625,0,1.208-0.393,1.42-1.018l40.475-119.105L749.3,695.73z"/>
		<path style="fill:#E2474B;" d="M843.612,717.726c0,0-20.016,5.275-22.261,6.127c-5.189,1.969-8.075-66.318-12.115-71.755
			c-2.087-2.81-15.912-30.805-17-30.667c-3.024,0.383-2.499,59.073-6.334,59.215c-25.791,0.979-93.03-2.358-94.185-2.787
			c-2.273-0.845,7.852-62.595,7.852-62.595c-4.31,5.347-14.462,30.86-26.5,43.5c-18.984,19.934-41.167,28-41.167,28
			c-2.221-2.231-14.578-14.112-15.333-17c-1.158-4.4,28.182-33.383,30.629-37.5l42.221-70.146l31.401-14.602
			c2.905-0.458,5.852,0.435,8.044,2.393c21.671,19.37,47.149,12.131,56.422,8.487c2.441-0.959,5.166-0.882,7.554,0.197
			l22.231,17.882l32.973,63.488C849.883,648.694,852.109,715.014,843.612,717.726z"/>
		<path style="fill:#0E2549;" d="M493.315,971.171c-0.002,0-0.004,0-0.006,0c-0.828-0.003-1.497-0.678-1.494-1.506l0.105-25.283
			c0.003-0.826,0.674-1.494,1.5-1.494c0.002,0,0.004,0,0.006,0c0.828,0.003,1.497,0.678,1.494,1.506l-0.105,25.283
			C494.811,970.504,494.141,971.171,493.315,971.171z"/>
		<path style="fill:#0E2549;" d="M1059.323,645.834c-0.25,0-0.503-0.063-0.735-0.194c-0.722-0.407-0.978-1.321-0.57-2.043
			l19.123-33.926c0.407-0.723,1.324-0.976,2.043-0.57c0.722,0.407,0.978,1.321,0.57,2.043l-19.123,33.926
			C1060.355,645.559,1059.847,645.834,1059.323,645.834z"/>
		<path style="fill:#0E2549;" d="M1035.462,651.419c-0.572,0-1.119-0.329-1.369-0.885l-10.378-23.055
			c-0.34-0.755-0.003-1.644,0.753-1.983c0.753-0.34,1.644-0.004,1.983,0.752l10.378,23.055c0.34,0.755,0.003,1.644-0.753,1.983
			C1035.877,651.375,1035.668,651.419,1035.462,651.419z"/>
		<path style="fill:#0E2549;" d="M470.727,984.788c-0.309,0-0.62-0.095-0.888-0.292l-31.367-23.081
			c-0.667-0.491-0.81-1.43-0.319-2.097c0.492-0.667,1.431-0.81,2.097-0.319l31.367,23.082c0.667,0.491,0.81,1.43,0.319,2.097
			C471.642,984.576,471.187,984.788,470.727,984.788z"/>
		<polygon style="fill:#1E5272;" points="744.535,797.644 733.907,829.347 728.694,820.339 742.025,789.421 		"/>
		<path style="fill:#0E2549;" d="M732.764,874.013c-0.209,0-0.423-0.044-0.626-0.138l-9.545-4.39
			c-0.753-0.346-1.082-1.237-0.736-1.99c0.346-0.752,1.236-1.083,1.99-0.736l9.545,4.39c0.752,0.346,1.082,1.237,0.736,1.99
			C733.875,873.689,733.332,874.013,732.764,874.013z"/>
		<path style="fill:#0E2549;" d="M735.135,867.173c-0.209,0-0.423-0.044-0.625-0.138l-9.545-4.389
			c-0.753-0.346-1.083-1.237-0.736-1.989c0.346-0.753,1.237-1.084,1.989-0.736l9.545,4.389c0.753,0.346,1.082,1.237,0.736,1.989
			C736.246,866.849,735.703,867.173,735.135,867.173z"/>
		<path style="fill:#0E2549;" d="M737.537,860.334c-0.21,0-0.423-0.044-0.626-0.138l-9.545-4.39
			c-0.752-0.346-1.082-1.237-0.736-1.99c0.346-0.752,1.235-1.082,1.99-0.736l9.545,4.39c0.753,0.346,1.082,1.237,0.736,1.99
			C738.648,860.01,738.105,860.334,737.537,860.334z"/>
		<path style="fill:#0E2549;" d="M756.502,858.417c-0.568,0-1.111-0.324-1.364-0.873c-0.346-0.753-0.017-1.644,0.736-1.99
			l9.545-4.39c0.754-0.345,1.644-0.016,1.99,0.736c0.346,0.753,0.017,1.644-0.736,1.99l-9.545,4.39
			C756.925,858.372,756.711,858.417,756.502,858.417z"/>
		<path style="fill:#0E2549;" d="M753.965,851.901c-0.568,0-1.111-0.324-1.364-0.874c-0.346-0.753-0.017-1.643,0.736-1.989
			l9.546-4.39c0.751-0.346,1.643-0.016,1.989,0.736c0.346,0.752,0.017,1.643-0.736,1.989l-9.546,4.39
			C754.388,851.856,754.174,851.901,753.965,851.901z"/>
		<path style="fill:#0E2549;" d="M774.25,502.674c-0.089,0-0.179-0.008-0.269-0.024c-0.816-0.147-1.357-0.928-1.209-1.743
			l0.167-0.925c0.148-0.816,0.932-1.353,1.743-1.209c0.815,0.147,1.357,0.928,1.209,1.743l-0.168,0.925
			C775.593,502.165,774.961,502.674,774.25,502.674z"/>
		<path style="fill:#0E2549;" d="M755.922,499.55c-0.079,0-0.159-0.006-0.239-0.019c-0.818-0.131-1.375-0.9-1.244-1.718l0.149-0.929
			c0.131-0.818,0.905-1.379,1.718-1.244c0.818,0.131,1.375,0.9,1.244,1.718l-0.149,0.929
			C757.283,499.025,756.646,499.55,755.922,499.55z"/>
		<path style="fill:#0E2549;" d="M759.384,494.824c-0.211,0-0.425-0.045-0.629-0.14c-0.044-0.02-2.729-1.21-5.514-0.134
			c-0.774,0.298-1.642-0.085-1.939-0.858c-0.299-0.772,0.085-1.641,0.858-1.939c4.015-1.553,7.708,0.141,7.862,0.213
			c0.75,0.352,1.073,1.245,0.721,1.995C760.487,494.505,759.947,494.824,759.384,494.824z"/>
		<path style="fill:#0E2549;" d="M778.854,499.109c-0.345,0-0.691-0.118-0.973-0.359c-2.277-1.944-5.215-1.701-5.247-1.7
			c-0.821,0.075-1.554-0.528-1.632-1.35c-0.079-0.821,0.516-1.552,1.337-1.635c0.169-0.018,4.213-0.393,7.489,2.403
			c0.63,0.538,0.705,1.485,0.168,2.115C779.699,498.93,779.277,499.109,778.854,499.109z"/>
		<path style="fill:#0E2549;" d="M763.24,510.921c-0.042,0-0.084,0-0.126,0c-0.828-0.003-1.497-0.677-1.495-1.505
			c0.003-0.827,0.674-1.495,1.5-1.495c0.021,0,0.044,0,0.066,0c1.125,0,2.318-0.091,3.099-0.221
			c-0.523-0.95-1.316-2.608-1.976-5.889c-0.163-0.812,0.363-1.602,1.175-1.766c0.813-0.166,1.603,0.363,1.766,1.175
			c0.659,3.277,1.403,4.582,1.848,5.362c0.355,0.624,0.799,1.4,0.423,2.425C769.31,509.582,768.819,510.921,763.24,510.921z
			 M766.696,508.446h0.01H766.696z"/>
		<path style="fill:#0E2549;" d="M769.813,513.759c0.451,0.99-3.136,3.507-6.674,2.743c-5.773-1.248-6.896-5.542-5.538-5.02
			c0.532,0.205,2.438,1.763,5.907,2.443C767.25,514.658,769.511,513.094,769.813,513.759z"/>
	</g>
	<g>
		
			<rect x="808.037" y="737.829" transform="matrix(0.937 -0.3494 0.3494 0.937 -232.5281 356.2032)" style="fill:#FFFFFF;" width="126.237" height="169.713"/>
		<path style="fill:#0E2549;" d="M840.78,926.176l-60.342-161.829l121.093-45.153l60.342,161.829L840.78,926.176z M784.298,766.11
			l58.245,156.206l115.471-43.056l-58.245-156.207L784.298,766.11z"/>
		<path style="fill:#FFFFFF;" d="M833.86,784.882c2.729,7.318-0.992,15.463-8.311,18.192c-7.318,2.729-15.463-0.992-18.192-8.31
			c-2.729-7.319,0.992-15.464,8.311-18.193C822.986,773.842,831.131,777.563,833.86,784.882z"/>
		<path style="fill:#0E2549;" d="M820.625,805.466c-6.346,0-12.329-3.892-14.673-10.178c-3.014-8.082,1.11-17.109,9.192-20.122
			c3.914-1.461,8.164-1.308,11.964,0.428c3.801,1.736,6.698,4.849,8.157,8.764l0,0c1.46,3.915,1.308,8.164-0.428,11.964
			c-1.736,3.8-4.848,6.698-8.763,8.157C824.279,805.149,822.437,805.466,820.625,805.466z M820.615,777.173
			c-1.491,0-2.985,0.267-4.423,0.803c-6.532,2.436-9.865,9.731-7.429,16.264c2.436,6.532,9.732,9.864,16.264,7.429
			c3.164-1.18,5.679-3.521,7.083-6.593c1.403-3.072,1.526-6.506,0.346-9.67l0,0c-1.18-3.164-3.521-5.68-6.593-7.083
			C824.186,777.558,822.403,777.173,820.615,777.173z"/>
		<path style="fill:#A1C5E2;" d="M852.435,834.697c2.729,7.319-0.992,15.464-8.31,18.193c-7.319,2.729-15.464-0.992-18.193-8.31
			c-2.729-7.318,0.992-15.463,8.311-18.192C841.56,823.658,849.706,827.379,852.435,834.697z"/>
		<path style="fill:#FFFFFF;" d="M870.369,882.795c2.729,7.319-0.992,15.464-8.31,18.193c-7.319,2.729-15.464-0.992-18.193-8.311
			c-2.729-7.319,0.992-15.464,8.311-18.192C859.495,871.756,867.641,875.477,870.369,882.795z"/>
		<path style="fill:#0E2549;" d="M857.135,903.38c-6.347,0-12.33-3.891-14.674-10.178c-3.013-8.082,1.11-17.109,9.192-20.122
			c8.08-3.015,17.108,1.11,20.122,9.192l0,0c3.013,8.082-1.11,17.109-9.192,20.122C860.789,903.063,858.946,903.38,857.135,903.38z
			 M857.104,875.093c-1.464,0-2.953,0.256-4.403,0.797c-6.531,2.436-9.864,9.732-7.429,16.264c2.435,6.531,9.729,9.861,16.264,7.429
			c6.531-2.436,9.864-9.731,7.429-16.264l0,0C867.069,878.239,862.233,875.093,857.104,875.093z"/>
		<path style="fill:#FFFFFF;" d="M841.763,771.593l51.533-19.215L841.763,771.593z"/>
		<path style="fill:#0E2549;" d="M841.763,773.093c-0.608,0-1.181-0.373-1.405-0.977c-0.289-0.776,0.105-1.64,0.881-1.929
			l51.534-19.215c0.776-0.289,1.641,0.105,1.929,0.881c0.289,0.776-0.105,1.64-0.881,1.929l-51.534,19.215
			C842.114,773.063,841.937,773.093,841.763,773.093z"/>
		<path style="fill:#FFFFFF;" d="M848.046,788.443l24.539-9.15L848.046,788.443z"/>
		<path style="fill:#0E2549;" d="M848.046,789.944c-0.608,0-1.181-0.373-1.405-0.977c-0.289-0.776,0.105-1.64,0.881-1.929
			l24.539-9.15c0.774-0.288,1.641,0.106,1.929,0.881c0.29,0.776-0.105,1.64-0.881,1.929l-24.54,9.15
			C848.397,789.913,848.22,789.944,848.046,789.944z"/>
		<path style="fill:#FFFFFF;" d="M857.707,818.104l51.534-19.216L857.707,818.104z"/>
		<path style="fill:#0E2549;" d="M857.707,819.604c-0.608,0-1.181-0.373-1.405-0.977c-0.289-0.776,0.105-1.64,0.881-1.929
			l51.534-19.215c0.774-0.289,1.641,0.105,1.929,0.881c0.289,0.776-0.105,1.64-0.881,1.929l-51.534,19.215
			C858.059,819.573,857.882,819.604,857.707,819.604z"/>
		<path style="fill:#FFFFFF;" d="M863.991,834.954l24.54-9.15L863.991,834.954z"/>
		<path style="fill:#0E2549;" d="M863.991,836.455c-0.608,0-1.181-0.373-1.405-0.977c-0.289-0.776,0.105-1.64,0.881-1.929
			l24.54-9.15c0.775-0.289,1.64,0.105,1.929,0.881c0.29,0.776-0.105,1.64-0.881,1.929l-24.54,9.15
			C864.342,836.424,864.165,836.455,863.991,836.455z"/>
		<path style="fill:#FFFFFF;" d="M879.156,871.879l51.534-19.216L879.156,871.879z"/>
		<path style="fill:#0E2549;" d="M879.157,873.379c-0.608,0-1.181-0.373-1.405-0.977c-0.29-0.776,0.105-1.64,0.881-1.929
			l51.533-19.215c0.775-0.289,1.641,0.105,1.929,0.881c0.29,0.776-0.105,1.64-0.881,1.929l-51.533,19.215
			C879.508,873.349,879.331,873.379,879.157,873.379z"/>
		<path style="fill:#FFFFFF;" d="M885.439,888.729l24.54-9.15L885.439,888.729z"/>
		<path style="fill:#0E2549;" d="M885.44,890.23c-0.608,0-1.181-0.373-1.405-0.977c-0.29-0.776,0.105-1.64,0.881-1.929l24.54-9.15
			c0.775-0.288,1.641,0.105,1.929,0.881c0.289,0.776-0.105,1.64-0.881,1.929l-24.539,9.15
			C885.792,890.199,885.614,890.23,885.44,890.23z"/>
		<path style="fill:#0E2549;" d="M839.012,843.987l-17.845-9.03c-0.739-0.374-1.035-1.276-0.661-2.016
			c0.374-0.739,1.277-1.036,2.016-0.661l15.23,7.707l16.779-31.312c0.391-0.73,1.299-1.006,2.031-0.614
			c0.73,0.392,1.005,1.301,0.614,2.031L839.012,843.987z"/>
		<path style="fill:#FFFFFF;" d="M828.07,746.085c0.58,4.352,10.056,15.852,13.693,15.9c3.637,0.048,10.637-16.934,9.474-19.887
			c-2.798-7.102-3.045-7.531-13.792-24.708c-0.299-0.478-9.129,0.942-11,1.184c-2.933,0.378-1.938,4.001-1.25,10.441
			C825.833,734.99,827.679,743.152,828.07,746.085z"/>
		<path style="fill:#0E2549;" d="M841.78,763.485c-0.012,0-0.024,0-0.037,0c-4.753-0.064-14.565-12.733-15.16-17.202l0,0
			c-0.138-1.034-0.478-2.819-0.873-4.887c-0.711-3.732-1.596-8.377-2.007-12.222c-0.106-0.997-0.22-1.925-0.326-2.784
			c-0.602-4.914-1.079-8.796,2.876-9.305c0.367-0.047,1.006-0.141,1.797-0.256c9.632-1.409,10.015-1.275,10.666-0.235
			c10.826,17.304,11.086,17.771,13.915,24.954c1.199,3.043-3.086,13.737-6.349,18.462
			C844.647,762.38,843.215,763.485,841.78,763.485z M836.554,718.793c-1.658,0.068-6.221,0.734-8.069,1.004
			c-0.813,0.119-1.471,0.215-1.848,0.264c-0.866,0.111-0.836,1.443-0.281,5.964c0.107,0.873,0.223,1.817,0.331,2.831
			c0.398,3.723,1.27,8.301,1.971,11.979c0.402,2.112,0.75,3.936,0.899,5.052l0,0c0.551,4.134,9.792,14.566,12.226,14.599
			c0.23-0.057,1.309-0.834,2.98-3.673c3.186-5.413,5.489-12.794,5.074-14.178C847.117,735.734,846.96,735.428,836.554,718.793z"/>
		<polygon style="fill:#E2474B;" points="841.032,709.133 842.551,718.006 821.633,723.754 819.136,713.864 		"/>
	</g>
	<g>
		<polygon style="fill:#FFFFFF;" points="427.142,1396.049 411.222,1533.669 392.197,1523.837 383.104,1397.954 		"/>
		<path style="fill:#0E2549;" d="M412.462,1535.999l-21.701-11.216l-9.265-128.261l47.337-2.048L412.462,1535.999z
			 M393.633,1522.891l16.348,8.448l15.468-133.716l-40.738,1.763L393.633,1522.891z"/>
		<path style="fill:#E2474B;" d="M413.642,1522.32c0,0,30.919,9.92,31.961,18.019l-55.497-0.173l0.056-17.919L413.642,1522.32z"/>
		<polygon style="fill:#FFFFFF;" points="306.191,1374.859 172.295,1359.566 169.481,1338.337 284.66,1336.053 		"/>
		<path style="fill:#0E2549;" d="M308.917,1376.681l-137.954-15.757l-3.189-24.054l117.759-2.335L308.917,1376.681z
			 M173.628,1358.209l129.837,14.829l-19.679-35.468l-112.597,2.233L173.628,1358.209z"/>
		<path style="fill:#E2474B;" d="M173.856,1359.198c0,0-8.395,31.368-16.432,32.805l-2.544-55.438l17.9-0.821L173.856,1359.198z"/>
		<path style="fill:#A1C5E2;" d="M384.627,1288.529c0,0-57.523,81.388-68.779,90.491c-21.029,17.009-127.539-11.224-127.539-11.224
			l2.551-37.241l100.249-0.437c0,0,28.901-52.417,33.366-80.396c4.465-27.979,39.87-51.442,39.87-51.442l54.915,62.917
			c0,0,12.057,101.952,12.344,142.222l-6.969,105.411H384.71l-6.469-104.1l-15.517-104.523L384.627,1288.529z"/>
		<path style="fill:#FFFFFF;" d="M465.76,1105.313c0,0-10.313,23.607-9.367,27.139c0.946,3.532,9.838,15.147,9.838,15.147
			l-43.343,47.051l-39.849-19.784l13.476-43.379c0,0,24.755-8.179,27.1-10.904c3.244-3.771,12.16-27.127,12.16-27.127
			L465.76,1105.313z"/>
		<path style="fill:#0E2549;" d="M423.229,1196.493l-42.002-20.853l14.084-45.335l0.733-0.242
			c11.95-3.949,25.104-8.941,26.433-10.46c2.521-2.93,9.442-20.255,11.896-26.684c0.295-0.773,1.162-1.162,1.937-0.866
			c0.774,0.296,1.162,1.162,0.866,1.937c-0.922,2.415-9.105,23.712-12.424,27.57c-2.335,2.714-20.407,8.905-27.033,11.108
			l-12.868,41.421l37.697,18.716l41.73-45.301c-2.288-3.043-8.477-11.466-9.334-14.666c-1.004-3.747,6.972-22.476,9.441-28.127
			c0.332-0.759,1.213-1.105,1.975-0.774c0.759,0.332,1.105,1.217,0.774,1.976c-4.804,10.996-9.722,24.124-9.29,26.156
			c0.631,2.357,6.21,10.218,9.578,14.617l0.767,1.001L423.229,1196.493z"/>
		<path style="fill:#FFFFFF;" d="M373.064,1150.78c-10.438-2.101-29.722-8.478-40.627-6.285c-4.7,0.945-42.676,46.262-42.023,49.133
			c0.654,2.871,3.063,18.677-0.049,14.548c-2.183-2.898-4.133-6.462-5.102-8.33c-0.242-0.466-0.922-0.409-1.083,0.09
			c-1.596,4.943-9.51,17.344-13.64,18.772c-5.495,1.899-4.47-23.276,6.437-33.52c3.702-3.477,23.174-73.69,48.025-76.808
			c24.852-3.116,68.513,2.42,68.513,2.42S387.325,1153.649,373.064,1150.78z"/>
		<path style="fill:#0E2549;" d="M269.969,1220.311c-1.105,0-2.109-0.619-2.807-1.773c-3.153-5.22-0.965-25.283,8.789-34.442
			c0.704-0.77,2.829-6.304,4.883-11.655c8.461-22.04,24.211-63.066,43.982-65.546c24.754-3.104,68.45,2.364,68.888,2.419
			l1.514,0.192l-0.218,1.511c-0.189,1.309-4.752,32.134-15.413,39.654c-2.161,1.524-4.453,2.058-6.819,1.581l0,0
			c-2.562-0.516-5.671-1.291-8.962-2.111c-10.31-2.571-23.14-5.77-31.073-4.174c-4.052,1.34-38.976,42.095-40.799,47.59
			c0.318,1.507,0.878,4.955,1.211,8.188c0.655,6.347,0.102,7.864-1.148,8.445c-0.55,0.256-1.652,0.453-2.83-1.111
			c-1.676-2.224-3.215-4.823-4.3-6.793c-2.621,5.896-9.573,16.365-13.837,17.841C270.671,1220.25,270.315,1220.311,269.969,1220.311
			z M343.347,1108.936c-6.532,0-12.799,0.263-18.157,0.935c-17.988,2.256-33.905,43.719-41.555,63.645
			c-3.194,8.32-4.534,11.737-5.63,12.768c-7.207,6.768-10.103,21.013-9.006,28.245c0.308,2.026,0.844,2.711,1.008,2.79
			c3.484-1.217,11.174-12.976,12.746-17.843c0.26-0.806,0.972-1.371,1.815-1.44c0.838-0.073,1.638,0.37,2.028,1.122
			c0.774,1.491,2.186,4.088,3.829,6.517c-0.102-3.394-0.951-9.42-1.473-11.712c-0.167-0.733,0.036-1.584,1.584-3.977
			c5.709-8.823,36.423-45.917,41.605-46.96c8.596-1.727,21.789,1.562,32.39,4.204c3.258,0.813,6.334,1.579,8.829,2.081l0,0
			c1.545,0.311,3.017-0.046,4.498-1.091c8.374-5.908,12.878-29.829,13.931-36.115C385.791,1111.4,363.352,1108.936,343.347,1108.936
			z M291.892,1193.697L291.892,1193.697L291.892,1193.697z"/>
		<path style="fill:#0E2549;" d="M475.836,1052.044c4.939,2.589,17.018,8.722,13.37,17.945
			c-4.16,10.521-11.286,23.347-15.161,30.051c-1.529,2.646-4.76,3.771-7.596,2.65l-31.767-12.563
			c-2.911-1.151-4.493-4.305-3.678-7.333c2.743-10.193,8.732-31.705,11.119-34.361
			C450.248,1039.395,468.016,1047.947,475.836,1052.044z"/>
		<path style="fill:#FFFFFF;" d="M434.423,1097.973c-1.01-2.46,1.09-9.782,4.076-17.903c0.086-0.234,0.044-0.494-0.104-0.687
			c-1.594-2.066-3.561-5.919-1.896-9.875c1.443-3.426,3.655-1.713,5.177,0.176c0.272,0.337,0.801,0.244,0.971-0.167
			c3.991-9.638,7.887-17.931,7.887-17.931l37.749,14.928c0,0-3.494,8.62-7.692,18.176c-0.189,0.429-10.922,22.937-12.657,24.672
			c-0.945,0.945-2.265,1.518-3.841,1.786c0,0-3.206,1.022-16.925-4.403L434.423,1097.973z"/>
		<path style="fill:#0E2549;" d="M463.233,1112.721c-2.045,0-6.726-0.67-16.617-4.581c-0.77-0.305-1.148-1.176-0.843-1.946
			c0.305-0.771,1.176-1.15,1.947-0.843c12.528,4.953,15.871,4.372,16.005,4.344l0.1-0.032l0.017,0.007
			c1.332-0.228,2.352-0.688,3.033-1.368c1.516-1.64,11.613-22.601,12.347-24.222c3.155-7.183,5.94-13.904,7.1-16.728l-35.021-13.851
			c-1.239,2.688-4.24,9.283-7.266,16.59c-0.283,0.684-0.91,1.173-1.636,1.277c-0.725,0.105-1.43-0.174-1.888-0.743
			c-1.092-1.355-1.761-1.596-1.918-1.581c-0.057,0.008-0.361,0.22-0.71,1.047c-1.517,3.604,0.684,7.058,1.701,8.376
			c0.469,0.607,0.59,1.4,0.324,2.121c-4.821,13.115-4.354,16.187-4.095,16.815c0.314,0.766-0.052,1.643-0.818,1.957
			c-0.767,0.314-1.642-0.052-1.958-0.818c-0.656-1.598-0.957-5.266,3.91-18.593c-1.411-1.947-3.828-6.274-1.829-11.022
			c0.719-1.709,1.747-2.669,3.055-2.854c1.178-0.167,2.4,0.351,3.643,1.539c3.762-8.991,7.324-16.585,7.361-16.664l0.599-1.275
			l40.466,16.003l-0.568,1.402c-0.035,0.087-3.55,8.749-7.708,18.215c-0.096,0.217-10.931,23.089-12.969,25.129
			c-1.119,1.118-2.664,1.856-4.595,2.194C464.186,1112.666,463.817,1112.721,463.233,1112.721z"/>
		<path style="fill:#0E2549;" d="M455.045,1079.825c-0.207,0-0.418-0.043-0.619-0.134c-0.754-0.343-1.088-1.232-0.746-1.986
			l0.347-0.765c0.343-0.754,1.233-1.085,1.986-0.746c0.754,0.343,1.088,1.232,0.746,1.986l-0.347,0.765
			C456.161,1079.498,455.615,1079.825,455.045,1079.825z"/>
		<path style="fill:#0E2549;" d="M471.294,1086.205c-0.188,0-0.379-0.035-0.564-0.11c-0.768-0.312-1.137-1.187-0.825-1.954
			l0.373-0.917c0.312-0.769,1.188-1.138,1.954-0.825c0.768,0.312,1.137,1.187,0.825,1.954l-0.372,0.917
			C472.448,1085.853,471.887,1086.205,471.294,1086.205z"/>
		<path style="fill:#0E2549;" d="M458.485,1074.348c-0.41,0-0.817-0.167-1.113-0.494l0,0c-0.026-0.029-2.65-2.862-5.153-1.735
			c-0.759,0.34-1.645,0.002-1.983-0.754c-0.339-0.756-0.002-1.644,0.754-1.982c4.514-2.031,8.446,2.28,8.612,2.465
			c0.553,0.616,0.501,1.564-0.115,2.118C459.199,1074.222,458.841,1074.348,458.485,1074.348z"/>
		<path style="fill:#0E2549;" d="M458.367,1047.771c0,0-15.887-11.34-19.881,14.212c-2.283,14.607-1.837-5.215,17.19-9.071
			C457.65,1052.512,458.367,1047.771,458.367,1047.771z"/>
		<polygon style="fill:#0E2549;" points="160.59,1393.88 155.94,1394.094 153.236,1335.19 158.552,1334.946 		"/>
		<polygon style="fill:#0E2549;" points="388.383,1536.778 388.368,1541.739 447.333,1541.923 447.35,1536.602 		"/>
		<path style="fill:#0E2549;" d="M158.161,1349.311c-0.797,0-1.46-0.627-1.498-1.432c-0.038-0.827,0.602-1.528,1.43-1.566
			l10.741-0.493c0.838-0.045,1.529,0.602,1.567,1.43c0.038,0.827-0.602,1.528-1.43,1.566l-10.741,0.493
			C158.207,1349.31,158.184,1349.311,158.161,1349.311z"/>
		<path style="fill:#0E2549;" d="M401.499,1538.938c-0.001,0-0.003,0-0.005,0c-0.828-0.003-1.497-0.677-1.495-1.505l0.034-10.752
			c0.002-0.826,0.674-1.495,1.5-1.495c0.001,0,0.003,0,0.005,0c0.828,0.003,1.497,0.677,1.495,1.505l-0.034,10.752
			C402.997,1538.27,402.326,1538.938,401.499,1538.938z"/>
		<path style="fill:#0E2549;" d="M463.099,1093.302c-0.709,0-1.359-0.082-1.793-0.154c-0.817-0.136-1.369-0.909-1.233-1.726
			c0.136-0.818,0.909-1.369,1.726-1.233c0.915,0.147,2.044,0.129,2.416-0.037c0.283-0.467,0.302-0.747,0.321-4.731
			c0.005-0.982,0.011-2.172,0.024-3.618c0.022-0.729,0.187-4.292,1.335-6.059c0.324-0.499,1.004-1.105,2.404-1.162
			c2.765-0.079,7.838,2.035,10.019,4.865c0.505,0.656,0.383,1.598-0.273,2.104c-0.656,0.506-1.598,0.384-2.104-0.273
			c-1.843-2.392-6.382-3.9-7.641-3.698c-0.444,0.93-0.703,3.04-0.741,4.283c-0.013,1.41-0.019,2.595-0.024,3.574
			c-0.023,4.622-0.025,5.105-0.839,6.406C465.962,1093.016,464.425,1093.302,463.099,1093.302z"/>
		<path style="fill:#0E2549;" d="M497.609,1046.639c-5.032-4.042-8.743,0.154-13.548,1.419c-4.805,1.265-4.495-3.526-9.04-8.114
			c-4.545-4.588-7.242,0.417-13.007,2.129c-5.765,1.711-5.719-0.563-10.95-1.9c-3.725-0.953-5.141,2.443-5.65,4.482
			c-1.157,0.227-2.381,0.658-3.39,1.464c-4.71,3.762,1.637,6.466-3.506,14.269c-2.496,3.787,4.579,11.04,4.907,7.271
			c0.328-3.77,2.891-6.192,4.898-8.362c0.259-0.28,0.521-0.61,0.78-0.973c1.602-0.171,3.222-0.345,4.433-0.233
			c3.396,0.313,6.28,2.575,10.406,5.826c4.126,3.251,7.517,1.738,11.467,0.323c3.95-1.415,8.185,0.928,9.138,3.489
			c0.078,0.208,0.252,0.399,0.486,0.571c-0.226,0.929-0.307,1.742-0.182,2.305c0.62,2.78-0.667,3.788-3.271,9.683
			c-2.605,5.895,2.737,2.117,3.469,1.939c0.732-0.178,3.016-2.983,3.596-7.077s2.758-2.989,4.252-6.999
			c0.448-1.204,0.529-2.497,0.429-3.719c0.127-1.133,0.183-2.225,0.91-3.004c1.52-1.631,5.175-0.358,8.423-4.213
			C505.907,1053.359,502.642,1050.681,497.609,1046.639z"/>
		<path style="fill:#0E2549;" d="M462.961,1097.979c0.266,0.791-1.071,3.076-3.181,2.015c-5.412-2.725-8.772-8.893-7.568-8.01
			c0.472,0.347,3.653,2.721,5.885,4.017C461.133,1097.763,462.66,1097.081,462.961,1097.979z"/>
		<path style="fill:#0E2549;" d="M390.757,1287.647l8.111-17.455c0.349-0.751,0.023-1.643-0.728-1.992
			c-0.751-0.348-1.643-0.022-1.993,0.729l-7.518,16.178l-8.71,2.305l-16.273,28.911c-0.406,0.722-0.15,1.636,0.571,2.043
			c0.233,0.131,0.485,0.192,0.734,0.192c0.524,0,1.033-0.275,1.309-0.765l11.994-21.309l10.355,101.58l4.135,103.629
			c0.032,0.805,0.697,1.436,1.498,1.436c0.02,0,0.04,0,0.06-0.001c0.828-0.033,1.472-0.728,1.44-1.554l-4.142-103.72
			l-10.793-105.906l1.104-1.961L390.757,1287.647z"/>
		<path style="fill:#0E2549;" d="M366.38,1253.885c-0.255-0.789-1.102-1.222-1.889-0.965l-23.247,7.521
			c-0.788,0.255-1.22,1.101-0.965,1.889c0.206,0.635,0.794,1.038,1.427,1.038c0.153,0,0.309-0.023,0.462-0.073l8.316-2.69
			l-49.261,84.979l-102.163-2.575c-0.828-0.029-1.517,0.633-1.537,1.462c-0.021,0.828,0.634,1.517,1.462,1.538l103.052,2.597
			l0.889,0.021l51.825-89.402l10.664-3.45C366.203,1255.519,366.635,1254.673,366.38,1253.885z"/>
		<path style="fill:#E2474B;" d="M582.225,1167.646c-1.484-0.483-3.559-0.151-9.69,1.04c-6.849,1.33-18.759,3.73-40.562,7.262
			c-33.437,5.416-65.154-47.231-70.422-44.354c-27.385,14.965-35.246-13.11-36.917-17.551
			c-4.613-12.254-91.962-14.936-110.093-7.541c-18.37,7.492-38.878,65.797-38.878,65.797l23.65,12.323l34.186-31.81l19.145,6.495
			l-30.084,73.935l105.295,40.933c0,0,15.036-39.52,17.996-47.178c0,0,8.479-14.02,16.503-29.871
			c15.824,10.853,41.319,20.868,58.311,17.454c48.912-9.828,60.353-17.891,63.6-20.747
			C584.811,1193.354,582.225,1167.646,582.225,1167.646z"/>
		
			<rect x="592.407" y="1030.402" transform="matrix(0.9953 -0.0972 0.0972 0.9953 -104.8952 68.6685)" style="fill:#FFFFFF;" width="120.266" height="161.685"/>
		<path style="fill:#0E2549;" d="M599.2,1199.187l-16.002-163.905l1.493-0.146l121.19-11.831l16.002,163.905l-1.493,0.146
			L599.2,1199.187z M586.475,1037.975l15.419,157.935l116.711-11.394l-15.419-157.935L586.475,1037.975z"/>
		<path style="fill:#0E2549;" d="M614.022,1083.6c-7.608,0-14.139-5.795-14.892-13.521c-0.389-3.98,0.796-7.874,3.336-10.964
			c2.54-3.089,6.131-5.005,10.112-5.394c8.208-0.798,15.555,5.23,16.357,13.448c0.803,8.217-5.23,15.556-13.447,16.358
			C614.996,1083.576,614.507,1083.6,614.022,1083.6z M614.041,1056.65c-0.388,0-0.778,0.019-1.172,0.058
			c-3.183,0.311-6.055,1.842-8.085,4.313c-2.031,2.471-2.979,5.584-2.668,8.768c0.311,3.183,1.843,6.055,4.313,8.086
			c2.472,2.031,5.588,2.982,8.768,2.668c6.571-0.642,11.395-6.51,10.753-13.081C625.347,1061.284,620.124,1056.65,614.041,1056.65z"
			/>
		<path style="fill:#A1C5E2;" d="M632.364,1117.728c0.723,7.405-4.694,13.996-12.101,14.719
			c-7.406,0.724-13.996-4.694-14.719-12.101c-0.723-7.406,4.695-13.996,12.101-14.72
			C625.051,1104.903,631.642,1110.321,632.364,1117.728z"/>
		<path style="fill:#0E2549;" d="M623.696,1182.685c-7.607,0-14.138-5.795-14.892-13.521c-0.389-3.98,0.796-7.874,3.336-10.964
			c2.54-3.09,6.131-5.005,10.112-5.394c8.209-0.799,15.555,5.23,16.357,13.448c0.803,8.217-5.23,15.556-13.448,16.358
			C624.669,1182.661,624.181,1182.685,623.696,1182.685z M623.715,1155.735c-0.388,0-0.778,0.019-1.172,0.058
			c-3.183,0.311-6.055,1.842-8.086,4.313c-2.031,2.471-2.979,5.585-2.668,8.768c0.642,6.57,6.502,11.406,13.081,10.754
			c6.571-0.642,11.395-6.51,10.754-13.081C635.021,1160.369,629.798,1155.735,623.715,1155.735z"/>
		<path style="fill:#0E2549;" d="M637.967,1058.512c-0.763,0-1.416-0.579-1.491-1.354c-0.081-0.824,0.522-1.558,1.347-1.639
			l52.15-5.091c0.817-0.081,1.558,0.522,1.638,1.348c0.081,0.824-0.522,1.558-1.347,1.639l-52.15,5.091
			C638.065,1058.51,638.016,1058.512,637.967,1058.512z"/>
		<path style="fill:#0E2549;" d="M639.632,1075.564c-0.763,0-1.415-0.579-1.491-1.354c-0.081-0.824,0.522-1.558,1.347-1.639
			l24.833-2.425c0.825-0.088,1.558,0.522,1.639,1.348c0.08,0.824-0.523,1.558-1.347,1.639l-24.833,2.425
			C639.73,1075.563,639.681,1075.564,639.632,1075.564z"/>
		<path style="fill:#0E2549;" d="M641.275,1105.237c-0.763,0-1.415-0.579-1.491-1.354c-0.081-0.824,0.522-1.558,1.347-1.639
			l52.15-5.092c0.82-0.086,1.558,0.522,1.639,1.348c0.081,0.824-0.522,1.558-1.347,1.639l-52.15,5.092
			C641.373,1105.235,641.324,1105.237,641.275,1105.237z"/>
		<path style="fill:#0E2549;" d="M642.94,1122.289c-0.763,0-1.415-0.579-1.491-1.354c-0.081-0.824,0.522-1.558,1.347-1.639
			l24.833-2.424c0.82-0.086,1.558,0.522,1.638,1.348c0.081,0.824-0.522,1.558-1.347,1.639l-24.833,2.424
			C643.039,1122.287,642.989,1122.289,642.94,1122.289z"/>
		<path style="fill:#0E2549;" d="M647.875,1159.997c-0.763,0-1.416-0.579-1.491-1.354c-0.081-0.824,0.522-1.558,1.347-1.639
			l52.15-5.091c0.817-0.085,1.558,0.522,1.638,1.348c0.081,0.824-0.522,1.558-1.347,1.639l-52.15,5.091
			C647.973,1159.995,647.924,1159.997,647.875,1159.997z"/>
		<path style="fill:#0E2549;" d="M649.54,1177.05c-0.763,0-1.415-0.579-1.491-1.354c-0.08-0.824,0.523-1.558,1.347-1.639
			l24.833-2.425c0.826-0.084,1.558,0.522,1.639,1.348c0.081,0.824-0.522,1.558-1.347,1.639l-24.833,2.425
			C649.638,1177.048,649.589,1177.05,649.54,1177.05z"/>
		<path style="fill:#0E2549;" d="M617.738,1123.098l-14.274-12.724c-0.619-0.552-0.673-1.5-0.122-2.118
			c0.551-0.617,1.5-0.673,2.118-0.122l12.087,10.774l23.06-24.678c0.566-0.604,1.516-0.637,2.12-0.071
			c0.605,0.565,0.638,1.515,0.072,2.12L617.738,1123.098z"/>
		<path style="fill:#FFFFFF;" d="M598.403,1179.173c-8.068,0.981-15.188,9.026-15.188,9.026l-1.824-18.057
			c0,0,7.902-1.276,8.963-4.129c1.061-2.854,13.627-20.134,13.979-14.801c0.246,3.742-5.195,13.256-5.415,15.42
			C598.861,1167.172,598.403,1179.173,598.403,1179.173z"/>
		<path style="fill:#0E2549;" d="M582.066,1191.76l-2.31-22.872l1.395-0.227c3.331-0.541,7.352-1.976,7.797-3.17
			c0.742-1.997,10.896-17.386,14.986-16.77c0.411,0.06,1.765,0.41,1.895,2.393c0.176,2.676-1.828,7.166-3.596,11.128
			c-0.786,1.76-1.764,3.951-1.824,4.543c-0.042,0.499-0.326,7.718-0.507,12.445l-0.049,1.277l-1.269,0.154
			c-7.417,0.902-14.179,8.455-14.247,8.531L582.066,1191.76z M583.021,1171.363l1.37,13.56c2.647-2.398,7.303-5.96,12.56-7.032
			c0.14-3.64,0.425-10.928,0.474-11.409c0.104-1.021,0.817-2.658,2.069-5.462c1.193-2.673,2.912-6.524,3.278-8.771
			c-3.066,2.457-10.167,12.015-11.011,14.288C590.706,1169.37,585.819,1170.779,583.021,1171.363z M598.403,1179.173h0.01H598.403z"
			/>
		<polygon style="fill:#E2474B;" points="572.112,1168.768 575.31,1199.199 586.306,1192.622 583.182,1167.433 		"/>
	</g>
	<g>
		<path style="fill:#0E2549;" d="M1744.637,1076.107c-1.886-9.102-2.962-35.896-24.276-43.32
			c14.885-13.318-12.731-24.932-19.694-17.708c-6.362,6.6-1.475,13.22,0.309,15.223c-4.955,0.509-8.791,0.088-15.844,6.709
			c-13.654,12.819-5.914,34.269-5.399,43.012s4.302,49.682,4.302,49.682l69.317,14.935
			C1753.351,1144.639,1754.494,1123.687,1744.637,1076.107z"/>
		<path style="fill:#A1C5E2;" d="M1699.636,1028.746l0.099,2.018c0,0,16.196,2.639,21.318,2.775l0.478-2.063
			C1721.53,1031.477,1702.74,1029.766,1699.636,1028.746z"/>
		<polygon style="fill:#FFFFFF;" points="1706.661,1405.813 1705.164,1439.188 1723.297,1437.566 1724.539,1404.113 		"/>
		<path style="fill:#0E2549;" d="M1703.589,1440.834l1.632-36.392l20.881-1.984l-1.354,36.484L1703.589,1440.834z
			 M1708.102,1407.183l-1.362,30.358l15.108-1.351l1.129-30.422L1708.102,1407.183z"/>
		<path style="fill:#E2474B;" d="M1704.207,1431.766c0,0-27.543-4.236-28.295,7.647s0.006,11.125,0.006,11.125l47.536-0.026
			l0.718-13.962C1724.172,1436.55,1706.781,1439.518,1704.207,1431.766z"/>
		<polygon style="fill:#FFFFFF;" points="1621.441,1300.142 1619.944,1333.518 1638.077,1331.896 1639.319,1298.442 		"/>
		<path style="fill:#0E2549;" d="M1618.369,1335.164l1.632-36.393l20.881-1.984l-1.354,36.485L1618.369,1335.164z
			 M1622.882,1301.512l-1.362,30.359l15.107-1.351l1.13-30.423L1622.882,1301.512z"/>
		<path style="fill:#E2474B;" d="M1618.987,1326.095c0,0-27.543-4.236-28.295,7.647c-0.752,11.885,0.007,11.126,0.007,11.126
			l47.535-0.026l0.718-13.963C1638.952,1330.879,1621.563,1333.848,1618.987,1326.095z"/>
		<rect x="1589.642" y="1342.432" style="fill:#0E2549;" width="49.39" height="2.74"/>
		<path style="fill:#E2474B;" d="M1697.165,1233.55l4.658,180.414l26.997,2.81c0,0,10.022-137.635,20.799-162.523
			c13.004-30.031-4.126-63.539-4.126-63.539l-51.415,5.389c0,0-0.077,3.483-1.489,5.704c-1.845,2.899-37.804,14.119-70.178,42.795
			c-6.067,5.374-4.813,38.412-4.813,64.951l25.164,0.599l5.927-43.026l48.898-17.205L1697.165,1233.55z"/>
		<path style="fill:#2E6B99;" d="M1715.58,1100.191c9.429,2.34,47.704,12.974,31.939,79.326l-2.334,2.766l0.881,8.415l-49.656,14.38
			l-1.875-8.288c0,0-3.595-0.941-9.017-8.084c-5.423-7.142-6.646-25.044-6.646-25.044l0.271-40.732c0,0,4.812-11.339,7.924-14.118
			C1694.798,1101.908,1705.521,1097.695,1715.58,1100.191z"/>
		<rect x="1674.861" y="1448.103" style="fill:#0E2549;" width="49.39" height="2.739"/>
		<path style="fill:#FFFFFF;" d="M1602.319,1142.732c0,0-15.95-5.829-15.714-3.34c0.237,2.49,15.035,6.616,14.975,6.948
			c-0.105,0.589-8.123-1.359-8.616,0.366c-0.681,2.378,11,2.209,17.511,2.427c6.51,0.218,18.414,3.72,18.414,3.72l-4.569-7.422
			c0,0-7.548-3.485-8.595-5.688s-6.881-14.83-6.788-10.548c0.065,3.005,0.625,6.323,0.953,8.036c0.082,0.427-1.382,0.512-1.742,0.27
			c-3.573-2.396-14.631-10.051-14.829-7.447c-0.232,3.058,11.046,8.877,10.854,9.11c-0.652,0.789-12.505-7.632-15.925-6.443
			c-4.903,1.705,14.35,10.135,14.35,10.135L1602.319,1142.732z"/>
		<path style="fill:#0E2549;" d="M1632.214,1155.396l-3.749-1.103c-0.118-0.035-11.798-3.451-18.041-3.66
			c-0.976-0.032-2.068-0.057-3.218-0.081c-9.747-0.214-14.032-0.59-15.342-2.365c-0.411-0.558-0.533-1.229-0.344-1.892
			c0.217-0.757,0.727-1.225,1.441-1.497c-5.726-2.188-7.69-3.588-7.85-5.263c-0.065-0.683,0.207-1.313,0.745-1.729
			c0.291-0.226,0.872-0.675,3.185-0.419c-2.1-1.538-3.135-2.854-3.093-3.939c0.019-0.462,0.23-1.596,1.806-2.144
			c1.141-0.397,2.677-0.156,4.526,0.511c-0.348-0.64-0.505-1.261-0.459-1.875c0.058-0.757,0.469-1.374,1.127-1.693
			c1.6-0.772,4.385,0.155,15.139,7.407c-0.295-1.818-0.603-4.199-0.651-6.427c-0.038-1.763,0.862-2.239,1.403-2.367
			c1.454-0.346,2.478,0.026,8.005,11.745l0.233,0.494c0.487,1.024,4.463,3.396,7.87,4.97l0.411,0.19L1632.214,1155.396z
			 M1602.696,1147.424c1.668,0.064,3.292,0.101,4.575,0.128c1.162,0.025,2.266,0.05,3.252,0.083
			c4.39,0.146,10.992,1.694,15.092,2.765l-2.338-3.799c-2.252-1.064-7.796-3.874-8.908-6.213l-0.237-0.503
			c-1.479-3.133-2.576-5.316-3.389-6.837c0.195,1.566,0.442,2.976,0.62,3.901c0.129,0.683-0.164,1.353-0.764,1.75
			c-0.851,0.564-2.479,0.591-3.286,0.05l-0.805-0.542c-5.48-3.697-8.653-5.578-10.471-6.47c1.144,1.037,3.297,2.633,7.283,5.063
			c1.91,1.165,2.204,1.345,2.332,2.104l0.114,0.675l-0.438,0.538c-1.039,1.257-2.276,0.577-6.388-1.691
			c-2.233-1.232-7.032-3.88-9.299-4.289c2.061,1.744,7.9,4.845,13.223,7.197c0.041,0.017,0.082,0.034,0.121,0.054
			c0.07,0.031,0.141,0.063,0.211,0.093c0.759,0.332,1.104,1.217,0.772,1.976c-0.331,0.761-1.217,1.107-1.976,0.772
			c-0.087-0.038-0.172-0.075-0.258-0.113c-3.618-1.319-7.724-2.604-10.635-3.307c2.759,1.216,6.573,2.517,8.225,3.08
			c3.29,1.122,3.975,1.355,3.73,2.716C1602.993,1146.959,1602.872,1147.226,1602.696,1147.424z"/>
		<path style="fill:#2E6B99;" d="M1732.802,1139.89c0,0-2.393,27.509-22.955,53.367c-9.64,12.122-29.106,26.424-45.652,40.399
			l-12.453-12.543l40.203-39.258l10.169-51.036L1732.802,1139.89z"/>
		<path style="fill:#2E6B99;" d="M1691.297,1114.333c0,0-4.729-6.123-8.984,2.706c-5.157,10.697-18.434,28.903-21.663,30.529
			c-3.23,1.625-42.717-8.099-42.717-8.099l-6.287,16.523c0,0,26.895,9.758,44.294,17.12c17.398,7.362,39.713-24.535,39.713-24.535
			L1691.297,1114.333z"/>
		<path style="fill:#0E2549;" d="M1686.948,1188.096c-0.396,0-0.793-0.156-1.088-0.468c-0.57-0.601-0.546-1.55,0.056-2.12
			l4.65-4.413l9.786-49.112c0.161-0.813,0.958-1.344,1.764-1.178c0.813,0.161,1.34,0.951,1.178,1.764l-9.972,50.048l-5.342,5.067
			C1687.69,1187.959,1687.319,1188.096,1686.948,1188.096z"/>
		<path style="fill:#0E2549;" d="M1664.194,1235.156c-0.427,0-0.851-0.181-1.146-0.532c-0.535-0.633-0.455-1.579,0.179-2.113
			l43.612-36.836c3.115-4.066,14.839-37.193,22.018-58.648c0.262-0.785,1.113-1.211,1.898-0.947c0.786,0.264,1.21,1.113,0.947,1.898
			c-1.861,5.563-18.31,54.493-22.628,59.705l-0.188,0.188l-43.726,36.931C1664.88,1235.04,1664.536,1235.156,1664.194,1235.156z"/>
		<path style="fill:#0E2549;" d="M1679.73,1172.447c-0.644,0-1.238-0.417-1.436-1.064c-5.387-17.735-1.388-43.978-1.215-45.086
			c0.129-0.818,0.895-1.37,1.714-1.251c0.819,0.128,1.378,0.895,1.251,1.714c-0.042,0.265-4.065,26.678,1.121,43.752
			c0.24,0.792-0.207,1.63-1,1.871C1680.021,1172.427,1679.874,1172.447,1679.73,1172.447z"/>
		<path style="fill:#FFFFFF;" d="M1717.817,1102.317c1.27-1.249-2.262-26.21-2.262-26.21l-21.991,4.336
			c0,0-0.262,24.091-1.026,27.983C1692.538,1108.427,1706.777,1113.175,1717.817,1102.317z"/>
		<path style="fill:#0E2549;" d="M1700.116,1110.986c-4.536,0-7.769-1.042-8.052-1.137l-1.252-0.417l0.254-1.295
			c0.605-3.082,0.926-21.048,0.998-27.71l0.014-1.219l24.741-4.88l0.222,1.568c3.636,25.71,2.414,26.911,1.827,27.489l0,0
			C1712.614,1109.538,1705.461,1110.986,1700.116,1110.986z M1694.197,1107.325c3.474,0.816,13.823,2.321,22.347-5.863
			c0.349-2.111-0.822-13.188-2.255-23.576l-19.239,3.795C1694.99,1086.215,1694.752,1101.794,1694.197,1107.325z M1716.507,1101.635
			L1716.507,1101.635L1716.507,1101.635z M1716.766,1101.248c-0.002,0.001-0.002,0.002-0.004,0.002
			C1716.764,1101.25,1716.764,1101.249,1716.766,1101.248L1716.766,1101.248z"/>
		<path style="fill:#FFFFFF;" d="M1715.628,1082.482c3.492-1.901,9.672-5.824,10.206-10.135c0.533-4.31-4.441-4.235-6.007-3.685
			c-1.043,0.367,2.535-23.813,2.535-23.813l-33.169-5.415c0,0-7.382,21.496-7.229,33.54c0.152,12.094,5.377,15.676,14.065,16.829
			c4.305,0.572,7.78-0.067,10.587-1.203L1715.628,1082.482z"/>
		<path style="fill:#0E2549;" d="M1699.145,1091.517c-1.084,0-2.188-0.075-3.313-0.224c-10.77-1.432-15.224-6.732-15.369-18.299
			c-0.152-12.164,7.007-33.158,7.312-34.046l0.411-1.197l35.877,5.857l-0.217,1.462c-1.29,8.718-2.513,18.315-2.694,21.847
			c1.434-0.091,3.248,0.138,4.592,1.221c0.881,0.709,1.87,2.047,1.579,4.395c-0.581,4.688-6.29,8.716-10.979,11.268
			c-0.723,0.396-1.637,0.128-2.034-0.601c-0.396-0.728-0.128-1.638,0.601-2.034c5.67-3.087,9.108-6.368,9.436-9.002
			c0.131-1.06-0.214-1.471-0.482-1.688c-0.92-0.738-2.82-0.647-3.539-0.396l-0.799,0.281l-0.716-0.55
			c-0.744-0.613-1.446-1.193,1.853-23.717l-30.448-4.971c-1.523,4.662-6.877,21.794-6.751,31.835
			c0.144,11.398,4.99,14.329,12.764,15.361c3.544,0.471,6.849,0.099,9.827-1.107c0.771-0.312,1.642,0.061,1.953,0.828
			c0.311,0.768-0.06,1.643-0.827,1.953C1704.672,1091.007,1701.98,1091.517,1699.145,1091.517z"/>
		<path style="fill:#0E2549;" d="M1688.817,1065.026c-0.107,0-0.216-0.012-0.326-0.035c-0.808-0.18-1.318-0.98-1.14-1.79
			l0.238-1.074c0.18-0.809,0.977-1.315,1.791-1.14c0.808,0.18,1.317,0.98,1.139,1.79l-0.238,1.074
			C1690.126,1064.551,1689.506,1065.026,1688.817,1065.026z"/>
		<path style="fill:#0E2549;" d="M1703.056,1068.055c-0.107,0-0.216-0.012-0.325-0.035c-0.81-0.18-1.319-0.98-1.141-1.789
			l0.238-1.075c0.179-0.81,0.978-1.316,1.789-1.141c0.81,0.18,1.319,0.98,1.141,1.789l-0.238,1.075
			C1704.364,1067.579,1703.744,1068.055,1703.056,1068.055z"/>
		<path style="fill:#0E2549;" d="M1711.115,1063.896c-0.292,0-0.586-0.084-0.845-0.261c-2.114-1.443-5.935-2.056-7.229-2.17
			c-0.825-0.073-1.436-0.801-1.362-1.626c0.073-0.826,0.81-1.431,1.626-1.362c0.222,0.02,5.469,0.505,8.657,2.68
			c0.684,0.468,0.859,1.4,0.393,2.085C1712.064,1063.667,1711.594,1063.896,1711.115,1063.896z"/>
		<path style="fill:#0E2549;" d="M1694.613,1073.199c-0.125,0-0.253-0.016-0.38-0.049c-5.096-1.329-5.218-2.65-5.276-3.286
			c-0.099-1.051,0.57-1.703,1.218-2.333c0.815-0.794,2.047-1.994,3.27-4.802c0.564-1.298,0.634-2.259,0.206-2.854
			c-0.914-1.271-4.068-1.437-5.461-1.316c-0.811,0.075-1.552-0.538-1.624-1.363c-0.072-0.824,0.536-1.551,1.359-1.625
			c0.609-0.051,6.002-0.442,8.157,2.548c1.093,1.517,1.131,3.471,0.112,5.809c-1.322,3.038-2.768,4.608-3.669,5.501
			c0.662,0.276,1.597,0.593,2.466,0.82c0.802,0.209,1.281,1.028,1.073,1.83C1695.888,1072.753,1695.279,1073.199,1694.613,1073.199z
			"/>
		<path style="fill:#0E2549;" d="M1699.59,1264.853c-0.039,0.004-0.079,0.006-0.119,0.007c-0.828,0.021-1.517-0.633-1.537-1.462
			l-0.726-28.964c-0.021-0.828,0.638-1.516,1.462-1.536c0.827-0.021,1.516,0.633,1.536,1.462l0.727,28.964
			C1700.952,1264.11,1700.36,1264.772,1699.59,1264.853z"/>
		<path style="fill:#0E2549;" d="M1682.406,1044.995c0,0,35.663,7.591,36.729,23.899c0,0,3.845-1.398,5.096-0.867
			c1.613,0.686,2.016,1.459,2.016,1.459l5.838-24.898l-42.668-6.663L1682.406,1044.995z"/>
		<path style="fill:#0E2549;" d="M1697.698,1076.509c0.366,0.846-3.284,3.268-5.636,2.811c-5.91-1.15-6.433-6.536-5.308-5.484
			c0.425,0.396,2.991,2.579,5.98,2.894C1696.57,1077.133,1697.283,1075.548,1697.698,1076.509z"/>
	</g>
	<g>
		<path style="fill:#D2EBFC;" d="M1653.578,1380.195l-130.471-292.059c-0.156-0.349,0-0.758,0.35-0.914l51.244-22.893
			c0.35-0.155,0.759,0.001,0.914,0.35l130.472,292.059L1653.578,1380.195z"/>
		<path style="fill:#FFFFFF;" d="M1524.693,1029.121l-0.567,24.284l-0.795,33.967c-0.012,0.517,0.519,0.869,0.99,0.658
			l50.477-22.549c0.472-0.211,0.563-0.842,0.17-1.177l-44.295-37.854C1528.351,1024.466,1524.765,1026.067,1524.693,1029.121z"/>
		<path style="fill:#0E2549;" d="M1576.984,1064.066c-0.271-0.607-45.338-38.757-45.338-38.757c-1.52-1.297-3.596-1.6-5.42-0.782
			c-1.824,0.814-2.986,2.562-3.033,4.559c0,0-1.752,58.999-1.456,59.662l130.472,292.059l0.611,1.37l55.247-24.681
			L1576.984,1064.066z M1525.634,1053.089c2.782-1.711,17.604-8.672,21.578-10.53l24.905,21.283l-47.229,21.098L1525.634,1053.089z
			 M1643.586,1354.149l-118.336-264.892l14.19-6.339l117.866,264.844c0.004,0.007,0.01,0.013,0.013,0.02L1643.586,1354.149z
			 M1660.038,1346.521l-117.859-264.826l14.862-6.64l117.767,264.618L1660.038,1346.521z M1559.78,1073.832l15.24-6.808
			l118.022,264.195l-15.514,7.192L1559.78,1073.832z"/>
	</g>
	<path style="fill:#FFFFFF;" d="M1657.382,1235.14c2.981-5.675,12.12-9.412,12.12-9.412l-12.445-6.771c0,0-3.45,5.629-5.868,5.516
		c-2.417-0.112-16.524-0.07-12.786,1.797c2.623,1.31,5.762,2.344,7.4,2.844c0.408,0.125,0.443,0.667,0.057,0.863
		c-3.836,1.944-17.823,13.252-15.165,15.539C1635.709,1249.828,1650.815,1247.643,1657.382,1235.14z"/>
	<path style="fill:#0E2549;" d="M1637.539,1249.043c-3.22,0-6.005-0.827-7.823-2.392c-0.647-0.557-0.943-1.37-0.832-2.288
		c0.462-3.807,9.668-11.365,14.327-14.515c-1.649-0.566-3.674-1.337-5.479-2.238c-1.608-0.804-1.516-1.914-1.401-2.354
		c0.337-1.291,1.487-1.916,7.413-2.203c3.189-0.153,6.469-0.129,7.514-0.079c0.006,0,0.013,0,0.019,0
		c0.801,0,2.975-2.316,4.502-4.802l0.745-1.213l16.467,8.959l-2.92,1.197c-0.086,0.036-8.673,3.604-11.36,8.722l0,0
		c-3.485,6.637-9.918,11.429-17.205,12.817C1640.138,1248.915,1638.805,1249.043,1637.539,1249.043z M1631.886,1244.55
		c1.856,1.406,5.363,1.861,9.058,1.158c6.396-1.22,12.046-5.432,15.11-11.266c2.148-4.091,7.046-7.172,10.147-8.803l-8.646-4.704
		c-1.389,2.009-3.938,5.175-6.438,5.034c-1.894-0.088-6.191-0.034-9.218,0.202c1.699,0.67,3.319,1.194,4.34,1.506
		c0.772,0.236,1.314,0.903,1.383,1.701c0.069,0.806-0.357,1.565-1.087,1.935C1642.723,1233.245,1632.461,1241.971,1631.886,1244.55z
		 M1657.382,1235.14h0.011H1657.382z"/>
	<polygon style="fill:#2E6B99;" points="1668.406,1206.622 1651.741,1221.113 1663.328,1232.784 1681.731,1216.549 	"/>
	<g>
		<path style="fill:#0E2549;" d="M1252.279,639.618v-157.08h170.173v107.116h-120.209L1252.279,639.618z M1255.279,485.538v146.837
			l45.722-45.721h118.451V485.538H1255.279z"/>
		<path style="fill:#0E2549;" d="M1394.959,510.467h-49.711c-0.828,0-1.5-0.671-1.5-1.5c0-0.829,0.672-1.5,1.5-1.5h49.711
			c0.828,0,1.5,0.671,1.5,1.5C1396.459,509.796,1395.787,510.467,1394.959,510.467z"/>
		<path style="fill:#0E2549;" d="M1394.959,533.563h-49.711c-0.828,0-1.5-0.671-1.5-1.5c0-0.829,0.672-1.5,1.5-1.5h49.711
			c0.828,0,1.5,0.671,1.5,1.5C1396.459,532.892,1395.787,533.563,1394.959,533.563z"/>
		<path style="fill:#0E2549;" d="M1395.932,556.66h-49.711c-0.828,0-1.5-0.671-1.5-1.5c0-0.829,0.672-1.5,1.5-1.5h49.711
			c0.828,0,1.5,0.671,1.5,1.5C1397.432,555.988,1396.76,556.66,1395.932,556.66z"/>
		<path style="fill:#0E2549;" d="M1300.19,561.921c-16.464,0-29.857-13.394-29.857-29.857c0-16.463,13.394-29.857,29.857-29.857
			s29.857,13.394,29.857,29.857C1330.048,548.527,1316.654,561.921,1300.19,561.921z M1300.19,505.206
			c-14.81,0-26.857,12.048-26.857,26.857c0,14.809,12.048,26.857,26.857,26.857s26.857-12.048,26.857-26.857
			C1327.048,517.254,1315,505.206,1300.19,505.206z"/>
		<path style="fill:#0E2549;" d="M1312.152,545.525c-0.384,0-0.768-0.146-1.061-0.44l-22.626-22.626
			c-0.586-0.586-0.586-1.536,0-2.121c0.586-0.586,1.535-0.586,2.121,0l22.626,22.626c0.586,0.586,0.586,1.536,0,2.121
			C1312.92,545.379,1312.536,545.525,1312.152,545.525z"/>
		<path style="fill:#0E2549;" d="M1288.567,545.187c-0.384,0-0.768-0.147-1.061-0.439c-0.586-0.585-0.586-1.536,0-2.121
			l22.744-22.745c0.586-0.586,1.535-0.586,2.121,0c0.586,0.586,0.586,1.536,0,2.121l-22.744,22.745
			C1289.335,545.04,1288.951,545.187,1288.567,545.187z"/>
	</g>
</g>
</svg>
